<?xml version="1.0" standalone="no"?>
<!DOCTYPE svg PUBLIC "-//W3C//DTD SVG 20010904//EN"
 "http://www.w3.org/TR/2001/REC-SVG-20010904/DTD/svg10.dtd">
<svg version="1.0" xmlns="http://www.w3.org/2000/svg"
 width="89.000000pt" height="89.000000pt" viewBox="0 0 89.000000 89.000000"
 preserveAspectRatio="xMidYMid meet">
<metadata>
Created by potrace 1.11, written by Peter Selinger 2001-2013
</metadata>
<g transform="translate(0.000000,89.000000) scale(0.100000,-0.100000)"
fill="#000000" stroke="none">
<path d="M370 841 c-11 -22 -44 -28 -55 -11 -11 17 -23 11 -27 -12 -3 -20 -9
-23 -40 -22 -33 1 -38 -2 -38 -22 0 -25 -38 -43 -61 -28 -9 5 -10 0 -5 -19 7
-30 -16 -59 -41 -50 -13 5 -15 2 -10 -20 9 -34 -1 -57 -24 -57 -22 0 -23 -1
-7 -34 10 -23 8 -29 -15 -50 -21 -19 -24 -30 -20 -62 2 -22 11 -54 19 -72 12
-24 13 -37 4 -46 -8 -10 -7 -15 3 -19 8 -3 20 -27 26 -54 15 -58 28 -75 52
-68 14 5 17 2 13 -8 -7 -19 14 -33 28 -19 14 14 38 -9 38 -37 0 -23 16 -37 22
-19 7 19 56 1 60 -22 3 -18 5 -19 30 -6 26 14 29 13 46 -11 l19 -26 20 22 20
22 32 -27 c18 -14 31 -23 30 -18 -4 22 2 34 17 34 10 0 12 5 7 13 -4 6 5 4 20
-6 27 -17 53 -15 42 4 -4 5 -1 9 4 9 6 0 11 8 11 18 0 14 2 15 10 2 5 -8 10
-12 10 -8 0 4 10 4 23 -1 21 -8 23 -6 21 20 -1 16 2 26 7 23 5 -3 9 3 10 13 0
10 3 13 5 6 3 -7 12 -9 21 -6 12 5 14 3 8 -7 -6 -9 -4 -11 4 -5 8 4 11 18 7
36 -5 24 -2 29 14 29 11 0 20 5 20 10 0 6 6 9 13 8 13 -3 13 5 1 36 -6 15 -4
17 6 11 10 -6 12 -4 7 7 -4 12 0 15 17 14 18 -2 22 1 18 16 -2 10 -8 21 -13
24 -16 9 -10 20 17 33 23 10 25 15 19 51 -6 36 -5 40 14 40 28 0 35 21 24 67
-7 31 -14 39 -36 41 -31 4 -59 40 -59 77 0 18 -6 25 -19 25 -11 0 -19 4 -19
10 0 5 -6 9 -12 7 -8 -1 -12 8 -11 26 1 16 -2 25 -8 21 -6 -3 -21 -3 -35 0
-17 5 -24 13 -24 32 0 21 -4 24 -20 19 -23 -7 -63 3 -56 14 3 4 1 13 -4 21 -7
12 -12 12 -22 2 -18 -18 -46 -14 -58 9 -11 19 -13 19 -29 5 -10 -9 -24 -16
-31 -16 -7 0 -21 7 -31 16 -16 14 -18 14 -29 -5z"/>
</g>
</svg>
