<?xml version="1.0" standalone="no"?>
<!DOCTYPE svg PUBLIC "-//W3C//DTD SVG 20010904//EN"
 "http://www.w3.org/TR/2001/REC-SVG-20010904/DTD/svg10.dtd">
<svg version="1.0" xmlns="http://www.w3.org/2000/svg"
 width="128.000000pt" height="128.000000pt" viewBox="0 0 128.000000 128.000000"
 preserveAspectRatio="xMidYMid meet">
<metadata>
Created by potrace 1.11, written by Peter Selinger 2001-2013
</metadata>
<g transform="translate(0.000000,128.000000) scale(0.100000,-0.100000)"
fill="#000000" stroke="none">
<path d="M895 1220 c-44 -9 -76 -16 -115 -24 -27 -6 -121 -25 -160 -32 -14 -2
-45 -9 -70 -14 -25 -5 -60 -12 -79 -15 -19 -3 -37 -7 -40 -9 -3 -2 -22 -7 -41
-10 -19 -3 -68 -12 -107 -20 -40 -9 -87 -18 -105 -21 -45 -8 -48 -14 -38 -60
5 -22 11 -53 14 -70 3 -16 17 -86 31 -155 15 -69 28 -136 31 -150 3 -14 13
-68 24 -120 11 -52 21 -106 24 -120 3 -14 16 -81 31 -150 14 -69 28 -141 31
-160 3 -19 8 -37 10 -39 2 -2 30 2 61 8 32 7 69 14 83 17 66 13 628 125 649
130 20 4 22 9 17 37 -3 18 -8 47 -11 64 -3 18 -12 61 -20 95 -8 35 -16 77 -19
93 -3 17 -37 186 -76 377 -38 192 -70 350 -70 353 0 6 -1 6 -55 -5z"/>
</g>
</svg>
