<svg version="1.1" id="Capa_1" xmlns="http://www.w3.org/2000/svg" xmlns:xlink="http://www.w3.org/1999/xlink" x="0px" y="0px"
	 viewBox="0 0 64.5 64.5" style="enable-background:new 0 0 64.5 64.5;" xml:space="preserve">
     <style>
        #isotipo {
          fill:#0E2A47;
        }
        @media (prefers-color-scheme: dark) {
            #isotipo {
                fill:#fff;
            }
        }
    </style>
    <g>
    	<path style="fill:#1273EB;" d="M7.4,21.5H0.2C0.2,9.6,9.9,0,21.7,0v7.2C13.9,7.2,7.4,13.6,7.4,21.5z"/>
    	<path style="fill:#1273EB;" d="M57.1,43h7.2c0,11.9-9.7,21.5-21.5,21.5v-7.2C50.7,57.4,57.1,51,57.1,43z"/>
    	<path id="isotipo" d="M42.3,25.5c-2.6-1.3-6.7-2.6-10.4-2.7c-3.3,0-5,1.2-5,3c0,1.9,2.4,2.4,5.3,2.8l2.9,0.4
    		c7.1,1.1,11,4.2,11,9.7c0,6.7-5.5,11.1-14.9,11.1C26.8,49.8,21,49,16.7,46l3.5-6.7c2.8,1.8,6.2,3.2,11.1,3.2c4.1,0,6-1.1,6-3.1
    		c0-1.6-1.6-2.5-5.4-3L29.2,36c-7.5-1-11.3-4.3-11.3-9.9c0-6.7,5.2-10.6,13.7-10.6c5.2,0,9.3,1,13.6,3.1L42.3,25.5z"/>
    </g>
</svg>
