<svg id="Layer_1" xmlns="http://www.w3.org/2000/svg" viewBox="0 0 3691.34 813.39">
  <style>
    .st0{fill:#090b17}
  </style>
  <path class="st0" d="M319.36 148.98l221.39 128.86c35.78 20.82 57.81 59.08 57.87 100.47l.63 435.08 265.24-148.98V232.27c0-41.54-22.13-79.93-58.07-100.76L579.43 0 319.36 148.98z"/>
  <path class="st0" d="M545.13 664.41l-221.4-128.86c-35.78-20.82-57.81-59.08-57.87-100.47L265.24 0 0 148.98v432.14c0 41.54 22.13 79.93 58.07 100.76L285.06 813.4l260.07-148.99zM2170.82 481.94c0 146.88-106.26 253.89-246.96 253.89s-246.96-107-246.96-253.89c0-147.85 106.26-253.89 246.96-253.89 140.7.01 246.96 106.04 246.96 253.89zm-127.31 0c0-90.46-57.44-136.19-119.65-136.19-62.21 0-119.65 45.73-119.65 136.19 0 89.49 57.44 136.19 119.65 136.19 62.21 0 119.65-45.73 119.65-136.19zM2719.58 481.94c0 146.88-106.26 253.89-246.96 253.89s-246.96-107-246.96-253.89c0-147.85 106.26-253.89 246.96-253.89s246.96 106.04 246.96 253.89zm-127.31 0c0-90.46-57.44-136.19-119.65-136.19s-119.65 45.73-119.65 136.19c0 89.49 57.44 136.19 119.65 136.19s119.65-45.73 119.65-136.19zM1197.64 722.19V77.55h134.5v515.98h307.98v128.66h-442.48zM3060.64 444.43l195.91 277.76h-158.87l-126.71-183.22-53.6 56.52V722.2h-129.63V77.55h129.63v343.47l165.68-178.35h169.59l-192 201.76zM3404.8 446.37l117.94-17.54c27.29-3.89 36.05-17.54 36.05-34.1 0-34.12-26.31-62.38-80.89-62.38-56.53 0-87.71 17.64-91.62 59.55l-117.15 1.52c7.8-75.05 79.14-165.37 207.78-165.37 152.04 0 208.58 85.76 208.58 182.25v235.87c0 25.34 2.92 59.44 5.84 76.01h-118.89c-2.94-12.67-4.87-38.99-4.87-57.5-24.37 38.01-70.17 71.14-141.33 71.14-102.34 0-164.71-69.19-164.71-144.23 0-85.77 63.35-133.52 143.27-145.22zm153.99 81.87V506.8l-108.18 16.56c-33.13 4.87-59.46 23.4-59.46 60.44 0 28.26 20.46 55.55 62.38 55.55 54.59 0 105.26-26.32 105.26-111.11z"/>
</svg>
